<svg xmlns="http://www.w3.org/2000/svg" xmlns:xlink="http://www.w3.org/1999/xlink" version="1.1" x="0px" y="0px" viewBox="0 0 35 43.75" enable-background="new 0 0 35 35" xml:space="preserve">
    <g>
        <path d="M14.5,13.5v18c0,1.1,0.9,2,2,2h6c1.1,0,2-0.9,2-2v-18c0-2.4-1.7-4.4-4-4.9V7.5H21c0.3,0,0.5-0.2,0.5-0.5V4   c0-0.3-0.2-0.5-0.5-0.5h-0.5v-1c0-0.6-0.4-1-1-1s-1,0.4-1,1v1H18c-0.3,0-0.5,0.2-0.5,0.5v0.5h-1c0-0.6-0.4-1-1-1h-5v4h5   c0.6,0,1-0.4,1-1h1V7c0,0.3,0.2,0.5,0.5,0.5h0.5v1.1C16.2,9.1,14.5,11.1,14.5,13.5z M19.5,4.5c0.6,0,1,0.4,1,1s-0.4,1-1,1   c-0.6,0-1-0.4-1-1S18.9,4.5,19.5,4.5z"/>
    </g>
</svg>